<svg xmlns="http://www.w3.org/2000/svg" xmlns:xlink="http://www.w3.org/1999/xlink" width="1440" height="800" fill="none" xmlns:v="https://vecta.io/nano"><style><![CDATA[.B{fill-opacity:.25}.C{fill-opacity:.05}.D{fill-opacity:.1}.E{fill-opacity:.15}.F{fill-opacity:.02}.G{color-interpolation-filters:sRGB}.H{flood-opacity:0}]]></style><g clip-path="url(#P)"><path fill="#060606" d="M0 0h1440v800H0z"/><g opacity=".9"><g filter="url(#A)"><path d="M984.469-548.44L1238.25-932l-205.28 411.56-487.216 843.876-227.795 338.553 179.298-366.553L984.469-548.44z" fill="url(#F)" fill-opacity=".12"/></g><g filter="url(#B)"><path d="M1128-446.805L1364.25-800 1176.5-418.805 726.497 360.618 514.249 672.243 678 332.618l450-779.423z" fill="url(#G)" fill-opacity=".12"/></g><g filter="url(#C)"><path d="M1060.09-502.53L1328.25-911l-219.67 436.47-517.735 896.751-240.549 360.643 192.051-388.643L1060.09-502.53z" fill="url(#H)" fill-opacity=".2"/></g><g filter="url(#D)"><path d="M1013-414.805L1249.25-768 1061.5-386.805 611.497 392.618 399.249 704.243 563 364.618l450-779.423z" fill="url(#I)" fill-opacity=".2"/></g></g><path d="M245.376 178.176H137V282.307H245.376V178.176Z" fill="url(#J)" class="F"/><path d="M454 485.408H351v97.275h103v-97.275z" fill="url(#K)" class="F"/><path d="M1199.38 479.63H1091v104.131h108.38V479.63z" fill="url(#L)" class="F"/><path d="M457.376 73.196H349v104.132h108.376V73.196z" fill="url(#M)" class="F"/><path d="M-72.3333 -330.348H-178V-228.82M-72.3333 -330.348V-228.82M-72.3333 -330.348H33.3333M-72.3333 -228.82H-178M-72.3333 -228.82H33.3333M-72.3333 -228.82V-127.291M-178 -228.82V-127.291M33.3333 -330.348V-228.82M33.3333 -330.348H139M33.3333 -228.82H139M33.3333 -228.82V-127.291M139 -330.348V-228.82M139 -330.348H244.667M139 -228.82H244.667M139 -228.82V-127.291M244.667 -330.348V-228.82M244.667 -330.348H350.333M244.667 -228.82H350.333M244.667 -228.82V-127.291M350.333 -330.348V-228.82M350.333 -330.348H456M350.333 -228.82H456M350.333 -228.82V-127.291M456 -330.348V-228.82M456 -330.348H561.667M456 -228.82H561.667M456 -228.82V-127.291M561.667 -330.348V-228.82M561.667 -330.348H667.333M561.667 -228.82H667.333M561.667 -228.82V-127.291M667.333 -330.348V-228.82M667.333 -330.348H773M667.333 -228.82H773M667.333 -228.82V-127.291M773 -330.348V-228.82M773 -330.348H878.667M773 -228.82H878.667M773 -228.82V-127.291M878.667 -330.348V-228.82M878.667 -330.348H984.333M878.667 -228.82H984.333M878.667 -228.82V-127.291M984.333 -330.348V-228.82M984.333 -330.348H1090M984.333 -228.82H1090M984.333 -228.82V-127.291M1090 -330.348V-228.82M1090 -330.348H1195.67M1090 -228.82H1195.67M1090 -228.82V-127.291M1195.67 -330.348V-228.82M1195.67 -330.348H1301.33M1195.67 -228.82H1301.33M1195.67 -228.82V-127.291M1301.33 -330.348V-228.82M1301.33 -330.348H1407M1301.33 -228.82H1407M1301.33 -228.82V-127.291M1407 -330.348V-228.82M1407 -330.348H1512.67M1407 -228.82H1512.67M1407 -228.82V-127.291M1512.67 -330.348V-228.82M1512.67 -330.348H1618.33V-228.82M1512.67 -228.82H1618.33M1512.67 -228.82V-127.291M1618.33 -228.82V-127.291M-72.3333 -127.291H-178M-72.3333 -127.291H33.3333M-72.3333 -127.291V-25.7634M-178 -127.291V-25.7634M33.3333 -127.291H139M33.3333 -127.291V-25.7634M139 -127.291H244.667M139 -127.291V-25.7634M244.667 -127.291H350.333M244.667 -127.291V-25.7634M350.333 -127.291H456M350.333 -127.291V-25.7634M456 -127.291H561.667M456 -127.291V-25.7634M561.667 -127.291H667.333M561.667 -127.291V-25.7634M667.333 -127.291H773M667.333 -127.291V-25.7634M773 -127.291H878.667M773 -127.291V-25.7634M878.667 -127.291H984.333M878.667 -127.291V-25.7634M984.333 -127.291H1090M984.333 -127.291V-25.7634M1090 -127.291H1195.67M1090 -127.291V-25.7634M1195.67 -127.291H1301.33M1195.67 -127.291V-25.7634M1301.33 -127.291H1407M1301.33 -127.291V-25.7634M1407 -127.291H1512.67M1407 -127.291V-25.7634M1512.67 -127.291H1618.33M1512.67 -127.291V-25.7634M1618.33 -127.291V-25.7634M-72.3333 -25.7634H-178M-72.3333 -25.7634H33.3333M-72.3333 -25.7634V75.7647M-178 -25.7634V75.7647M33.3333 -25.7634H139M33.3333 -25.7634V75.7647M139 -25.7634H244.667M139 -25.7634V75.7647M244.667 -25.7634H350.333M244.667 -25.7634V75.7647M350.333 -25.7634H456M350.333 -25.7634V75.7647M456 -25.7634H561.667M456 -25.7634V75.7647M561.667 -25.7634H667.333M561.667 -25.7634V75.7647M667.333 -25.7634H773M667.333 -25.7634V75.7647M773 -25.7634H878.667M773 -25.7634V75.7647M878.667 -25.7634H984.333M878.667 -25.7634V75.7647M984.333 -25.7634H1090M984.333 -25.7634V75.7647M1090 -25.7634H1195.67M1090 -25.7634V75.7647M1195.67 -25.7634H1301.33M1195.67 -25.7634V75.7647M1301.33 -25.7634H1407M1301.33 -25.7634V75.7647M1407 -25.7634H1512.67M1407 -25.7634V75.7647M1512.67 -25.7634H1618.33M1512.67 -25.7634V75.7647M1618.33 -25.7634V75.7647M-72.3333 75.7647H-178M-72.3333 75.7647H33.3333M-72.3333 75.7647V177.293M-178 75.7647V177.293M33.3333 75.7647H139M33.3333 75.7647V177.293M139 75.7647H244.667M139 75.7647V177.293M244.667 75.7647H350.333M244.667 75.7647V177.293M350.333 75.7647H456M350.333 75.7647V177.293M456 75.7647H561.667M456 75.7647V177.293M561.667 75.7647H667.333M561.667 75.7647V177.293M667.333 75.7647H773M667.333 75.7647V177.293M773 75.7647H878.667M773 75.7647V177.293M878.667 75.7647H984.333M878.667 75.7647V177.293M984.333 75.7647H1090M984.333 75.7647V177.293M1090 75.7647H1195.67M1090 75.7647V177.293M1195.67 75.7647H1301.33M1195.67 75.7647V177.293M1301.33 75.7647H1407M1301.33 75.7647V177.293M1407 75.7647H1512.67M1407 75.7647V177.293M1512.67 75.7647H1618.33M1512.67 75.7647V177.293M1618.33 75.7647V177.293M-72.3333 177.293H-178M-72.3333 177.293H33.3333M-72.3333 177.293V278.821M-178 177.293V278.821M33.3333 177.293H139M33.3333 177.293V278.821M139 177.293H244.667M139 177.293V278.821M244.667 177.293H350.333M244.667 177.293V278.821M350.333 177.293H456M350.333 177.293V278.821M456 177.293H561.667M456 177.293V278.821M561.667 177.293H667.333M561.667 177.293V278.821M667.333 177.293H773M667.333 177.293V278.821M773 177.293H878.667M773 177.293V278.821M878.667 177.293H984.333M878.667 177.293V278.821M984.333 177.293H1090M984.333 177.293V278.821M1090 177.293H1195.67M1090 177.293V278.821M1195.67 177.293H1301.33M1195.67 177.293V278.821M1301.33 177.293H1407M1301.33 177.293V278.821M1407 177.293H1512.67M1407 177.293V278.821M1512.67 177.293H1618.33M1512.67 177.293V278.821M1618.33 177.293V278.821M-72.3333 278.821H-178M-72.3333 278.821H33.3333M-72.3333 278.821V380.349M-178 278.821V380.349M33.3333 278.821H139M33.3333 278.821V380.349M139 278.821H244.667M139 278.821V380.349M244.667 278.821H350.333M244.667 278.821V380.349M350.333 278.821H456M350.333 278.821V380.349M456 278.821H561.667M456 278.821V380.349M561.667 278.821H667.333M561.667 278.821V380.349M667.333 278.821H773M667.333 278.821V380.349M773 278.821H878.667M773 278.821V380.349M878.667 278.821H984.333M878.667 278.821V380.349M984.333 278.821H1090M984.333 278.821V380.349M1090 278.821H1195.67M1090 278.821V380.349M1195.67 278.821H1301.33M1195.67 278.821V380.349M1301.33 278.821H1407M1301.33 278.821V380.349M1407 278.821H1512.67M1407 278.821V380.349M1512.67 278.821H1618.33M1512.67 278.821V380.349M1618.33 278.821V380.349M-72.3333 380.349H-178M-72.3333 380.349H33.3333M-72.3333 380.349V481.877M-178 380.349V481.877M33.3333 380.349H139M33.3333 380.349V481.877M139 380.349H244.667M139 380.349V481.877M244.667 380.349H350.333M244.667 380.349V481.877M350.333 380.349H456M350.333 380.349V481.877M456 380.349H561.667M456 380.349V481.877M561.667 380.349H667.333M561.667 380.349V481.877M667.333 380.349H773M667.333 380.349V481.877M773 380.349H878.667M773 380.349V481.877M878.667 380.349H984.333M878.667 380.349V481.877M984.333 380.349H1090M984.333 380.349V481.877M1090 380.349H1195.67M1090 380.349V481.877M1195.67 380.349H1301.33M1195.67 380.349V481.877M1301.33 380.349H1407M1301.33 380.349V481.877M1407 380.349H1512.67M1407 380.349V481.877M1512.67 380.349H1618.33M1512.67 380.349V481.877M1618.33 380.349V481.877M-72.3333 481.877H-178M-72.3333 481.877H33.3333M-72.3333 481.877V583.405M-178 481.877V583.405M33.3333 481.877H139M33.3333 481.877V583.405M139 481.877H244.667M139 481.877V583.405M244.667 481.877H350.333M244.667 481.877V583.405M350.333 481.877H456M350.333 481.877V583.405M456 481.877H561.667M456 481.877V583.405M561.667 481.877H667.333M561.667 481.877V583.405M667.333 481.877H773M667.333 481.877V583.405M773 481.877H878.667M773 481.877V583.405M878.667 481.877H984.333M878.667 481.877V583.405M984.333 481.877H1090M984.333 481.877V583.405M1090 481.877H1195.67M1090 481.877V583.405M1195.67 481.877H1301.33M1195.67 481.877V583.405M1301.33 481.877H1407M1301.33 481.877V583.405M1407 481.877H1512.67M1407 481.877V583.405M1512.67 481.877H1618.33M1512.67 481.877V583.405M1618.33 481.877V583.405M-72.3333 583.405H-178M-72.3333 583.405H33.3333M-72.3333 583.405V684.933M-178 583.405V684.933M33.3333 583.405H139M33.3333 583.405V684.933M139 583.405H244.667M139 583.405V684.933M244.667 583.405H350.333M244.667 583.405V684.933M350.333 583.405H456M350.333 583.405V684.933M456 583.405H561.667M456 583.405V684.933M561.667 583.405H667.333M561.667 583.405V684.933M667.333 583.405H773M667.333 583.405V684.933M773 583.405H878.667M773 583.405V684.933M878.667 583.405H984.333M878.667 583.405V684.933M984.333 583.405H1090M984.333 583.405V684.933M1090 583.405H1195.67M1090 583.405V684.933M1195.67 583.405H1301.33M1195.67 583.405V684.933M1301.33 583.405H1407M1301.33 583.405V684.933M1407 583.405H1512.67M1407 583.405V684.933M1512.67 583.405H1618.33M1512.67 583.405V684.933M1618.33 583.405V684.933M-72.3333 684.933H-178M-72.3333 684.933H33.3333M-72.3333 684.933V786.461M-178 684.933V786.461M33.3333 684.933H139M33.3333 684.933V786.461M139 684.933H244.667M139 684.933V786.461M244.667 684.933H350.333M244.667 684.933V786.461M350.333 684.933H456M350.333 684.933V786.461M456 684.933H561.667M456 684.933V786.461M561.667 684.933H667.333M561.667 684.933V786.461M667.333 684.933H773M667.333 684.933V786.461M773 684.933H878.667M773 684.933V786.461M878.667 684.933H984.333M878.667 684.933V786.461M984.333 684.933H1090M984.333 684.933V786.461M1090 684.933H1195.67M1090 684.933V786.461M1195.67 684.933H1301.33M1195.67 684.933V786.461M1301.33 684.933H1407M1301.33 684.933V786.461M1407 684.933H1512.67M1407 684.933V786.461M1512.67 684.933H1618.33M1512.67 684.933V786.461M1618.33 684.933V786.461M-72.3333 786.461H-178M-72.3333 786.461H33.3333M-72.3333 786.461V887.99M-178 786.461V887.99H-72.3333M33.3333 786.461H139M33.3333 786.461V887.99M139 786.461H244.667M139 786.461V887.99M244.667 786.461H350.333M244.667 786.461V887.99M350.333 786.461H456M350.333 786.461V887.99M456 786.461H561.667M456 786.461V887.99M561.667 786.461H667.333M561.667 786.461V887.99M667.333 786.461H773M667.333 786.461V887.99M773 786.461H878.667M773 786.461V887.99M878.667 786.461H984.333M878.667 786.461V887.99M984.333 786.461H1090M984.333 786.461V887.99M1090 786.461H1195.67M1090 786.461V887.99M1195.67 786.461H1301.33M1195.67 786.461V887.99M1301.33 786.461H1407M1301.33 786.461V887.99M1407 786.461H1512.67M1407 786.461V887.99M1512.67 786.461H1618.33M1512.67 786.461V887.99M1618.33 786.461V887.99H1512.67M-72.3333 887.99H33.3333M33.3333 887.99H139M139 887.99H244.667M244.667 887.99H350.333M350.333 887.99H456M456 887.99H561.667M561.667 887.99H667.333M667.333 887.99H773M773 887.99H878.667M878.667 887.99H984.333M984.333 887.99H1090M1090 887.99H1195.67M1195.67 887.99H1301.33M1301.33 887.99H1407M1407 887.99H1512.67" stroke="url(#N)" stroke-opacity=".08" stroke-width="2"/><path d="M986.376 72.233H878v104.132h108.376V72.233z" fill="url(#O)" class="F"/><g fill="#fff"><circle cx="1302.04" cy="749.815" r="1" class="C"/><circle cx="1336.16" cy="495.532" r="1" class="E"/><circle cx="1335.73" cy="555.656" r="1" class="D"/><circle cx="951.026" cy="529.525" r="1" class="D"/><circle cx="565.808" cy="212.882" r="1" class="D"/><circle cx="554.623" cy="792.233" r="1" class="E"/><circle cx="413.907" cy="274.979" r="1" class="B"/><circle cx="1361.82" cy="332.309" r="1" class="D"/><circle cx="1239.91" cy="282.779" r="1"/><circle cx="267.742" cy="136.03" r="1" class="B"/><circle cx="304.961" cy="628.153" r="1" class="D"/><circle cx="482.067" cy="671.105" r="1" class="C"/><circle cx="746.014" cy="693.666" r="1" class="D"/><circle cx="1159.78" cy="466.781" r="1" class="C"/><circle cx="49.886" cy="180.962" r="1" class="C"/><circle cx="1044.91" cy="528.127" r="1" class="B"/><circle cx="451.473" cy="272.958" r="1" class="E"/><circle cx="318.93" cy="231.319" r="1" class="E"/><circle cx="1279.47" cy="728.392" r="1" class="C"/><circle cx="638.88" cy="315.643" r="1" class="B"/><circle cx="1197.3" cy="12.84" r="1" class="B"/><circle cx="506.723" cy="307.648" r="1" class="C"/><circle cx="482.297" cy="296.833" r="1" class="D"/><circle cx="464.194" cy="680.041" r="1" class="B"/><circle cx="1290" cy="691.099" r="1" class="D"/><circle cx="1262.98" cy="39.908" r="1" class="B"/><circle cx="1024.84" cy="182.655" r="1" class="E"/><circle cx="993.237" cy="369.36" r="1" class="C"/><circle cx="960.264" cy="625.371" r="1"/><circle cx="1163.88" cy="761.003" r="1" class="B"/><circle cx="315.27" cy="782.964" r="1" class="C"/><circle cx="1053.55" cy="603.562" r="1" class="B"/><circle cx="719.777" cy="168.9" r=".5" class="C"/><circle cx="411.169" cy="75.786" r=".5" class="C"/><circle cx="547.281" cy="146.224" r=".5" class="D"/><circle cx="705.812" cy="598.848" r=".5" class="D"/><circle cx="1047.45" cy="638.666" r=".5" class="B"/><circle cx="994.058" cy="80.141" r=".5" class="E"/><circle cx="641.536" cy="672.006" r=".5" class="B"/><circle cx="75.338" cy="224.954" r=".5" class="C"/><circle cx="277.617" cy="394.714" r=".5" class="D"/><circle cx="1061.52" cy="696.367" r=".5" class="B"/><circle cx="1321.38" cy="267.054" r=".5" class="C"/><circle cx="493.621" cy="632.887" r=".5" class="C"/><circle cx="450.736" cy="787.151" r=".5"/><circle cx="373.121" cy="531.139" r=".5" class="C"/><circle cx="152.854" cy="634.135" r=".5" class="C"/><circle cx="706.162" cy="595.788" r=".5" class="C"/><circle cx="941.124" cy="689.951" r=".5"/><circle cx="1355.82" cy="787.854" r=".5" class="D"/><circle cx="841.056" cy="225.334" r=".5" class="B"/><circle cx="337.181" cy="689.471" r=".5"/><circle cx="423.115" cy="477.502" r=".5"/><circle cx="1246.25" cy="17.689" r=".5" class="D"/><circle cx="-.379" cy="709.416" r=".5"/><circle cx="970.801" cy="799.234" r=".5" class="E"/><circle cx="521.08" cy="325.797" r=".5" class="D"/><circle cx="948.182" cy="673.73" r=".5" class="C"/><circle cx="840.969" cy="87.051" r=".5" class="B"/><circle cx="910.189" cy="8.064" r=".5" class="B"/><circle cx="536.585" cy="656.532" r=".5" class="C"/><circle cx="1230.31" cy="385.317" r=".5" class="B"/><circle cx="64.311" cy="24.507" r=".5" class="B"/><circle cx="125.811" cy="488.996" r=".5" class="C"/><circle cx="1111.2" cy="215.252" r=".5" class="B"/><circle cx="562.109" cy="135.448" r=".5" class="E"/><circle cx="1144.11" cy="96.344" r=".5" class="C"/><circle cx="1093.98" cy="631.097" r=".5" class="E"/><circle cx="1149.49" cy="65.678" r=".5"/><circle cx="488.563" cy="207.042" r=".5" class="E"/><circle cx="106.465" cy="757.415" r=".5" class="C"/><circle cx="785.354" cy="647.364" r=".5" class="B"/><circle cx="660.981" cy="514.281" r=".5" class="B"/><circle cx="490.314" cy="42.982" r=".5" class="B"/><circle cx="996.222" cy="387.174" r=".5"/><circle cx="1356.8" cy="713.829" r=".5" class="B"/><circle cx="72.284" cy="731.463" r=".5" class="E"/><circle cx="956.46" cy="76.704" r=".5" class="C"/><circle cx="121.279" cy="537.557" r=".5" class="B"/><circle cx="1318.5" cy="584.302" r=".5" class="B"/><circle cx="1245.58" cy="93.605" r=".5" class="D"/><circle cx="1103.14" cy="476.114" r=".5" class="C"/><circle cx="443.414" cy="274.712" r=".5" class="D"/><circle cx="702.406" cy="551.285" r=".5" class="D"/><circle cx="878.227" cy="393.366" r=".5" class="D"/><circle cx="1071.14" cy="259.641" r=".5" class="B"/><circle cx="280.557" cy="626.412" r=".5" class="C"/><circle cx="843.446" cy="627.457" r=".5"/><circle cx="116.372" cy="162.162" r=".5" class="C"/><circle cx="872.636" cy="626.661" r=".5" class="B"/><circle cx="241.916" cy="252.416" r=".5" class="E"/><circle cx="1375.65" cy="599.154" r=".5" class="B"/><circle cx="148.077" cy="104.114" r=".5" class="E"/><circle cx="1322.25" cy="555.729" r=".5" class="D"/><circle cx="1122.97" cy="81.503" r=".5"/><circle cx="275.474" cy="511.685" r=".5"/><circle cx="626.043" cy="558.374" r=".5" class="C"/><circle cx="872.016" cy="509.029" r=".5" class="B"/><circle cx="886.46" cy="441.071" r=".5"/><circle cx="828.829" cy="436.905" r=".5" class="E"/><circle cx="1155.49" cy="495.709" r=".5" class="D"/><circle cx="788.726" cy="327.447" r=".5" class="C"/><circle cx="903.369" cy="718.919" r=".5" class="C"/><circle cx="1160.54" cy="341.772" r=".5"/><circle cx="88.22" cy="193.844" r=".5" class="B"/><circle cx="518.76" cy="296.862" r=".5" class="C"/><circle cx="750.344" cy="509.145" r=".5" class="E"/><circle cx="1025.08" cy="455.463" r=".5" class="D"/><circle cx="855.426" cy="148.752" r=".5" class="B"/><circle cx="893.872" cy="350.809" r=".5" class="B"/><circle cx="124.217" cy="314.155" r=".5" class="B"/><circle cx="984.662" cy="113.988" r=".5" class="C"/><circle cx="1053.85" cy="727.025" r=".5" class="E"/><circle cx="1281.53" cy="619.882" r=".5" class="B"/><circle cx="155.524" cy="195.828" r=".5" class="C"/><circle cx="534.474" cy="602.625" r=".5" class="E"/><circle cx="1118.23" cy="209.937" r=".5" class="E"/><circle cx="80.495" cy="536.484" r=".5" class="B"/><circle cx="1034.47" cy="498.171" r=".5" class="E"/><circle cx="1316.04" cy="289.704" r=".5" class="D"/><circle cx="24.98" cy="404.333" r=".5" class="C"/><circle cx="1115.54" cy="586.71" r=".5" class="C"/><circle cx="1079.32" cy="351.058" r=".5" class="D"/><circle cx="762.045" cy="408.842" r=".5" class="D"/><circle cx="79.115" cy="33.191" r=".5" class="C"/><circle cx="771.102" cy="673.407" r=".5" class="E"/><circle cx="379.562" cy="293.259" r=".5" class="C"/><circle cx="553.704" cy="521.853" r=".5"/><circle cx="1204.38" cy="229.783" r=".5" class="B"/><circle cx="690.591" cy="240.199" r=".5" class="E"/><circle cx="1178.83" cy="244.542" r=".5" class="B"/><circle cx="884.332" cy="52.527" r=".5" class="B"/><circle cx="598.806" cy="614.108" r=".5" class="B"/><circle cx="127.157" cy="644.467" r=".5" class="C"/><circle cx="862.47" cy="241.946" r=".5" class="E"/><circle cx="868.498" cy="477.567" r=".5" class="E"/><circle cx="400.465" cy="678.512" r=".5" class="D"/><circle cx="1086.12" cy="267.965" r=".5" class="C"/><circle cx="1081.39" cy="550.5" r=".5" class="B"/><circle cx="493.828" cy="51.471" r=".5" class="C"/><circle cx="1059.11" cy="769.043" r=".5"/><circle cx="1376.29" cy="533.853" r=".5" class="B"/><circle cx="845.248" cy="365.198" r=".5" class="C"/><circle cx="404.506" cy="27.039" r=".5" class="E"/><circle cx="705.293" cy="657.941" r=".5" class="B"/><circle cx="1386.1" cy="381.214" r=".5" class="D"/><circle cx="1057.74" cy="383.454" r=".5" class="C"/><circle cx="184.079" cy="720.538" r=".5" class="C"/><circle cx="1340.45" cy="679.587" r=".5" class="C"/><circle cx="838.967" cy="710.066" r=".5" class="B"/><circle cx="419.744" cy="410.858" r=".5" class="D"/><circle cx="759.797" cy="728.545" r=".5" class="E"/><circle cx="782.479" cy="286.813" r=".5" class="B"/><circle cx="96.509" cy="669" r=".5" class="B"/><circle cx="1074.76" cy="145.961" r=".5" class="D"/><circle cx="1336.87" cy="794.477" r=".5" class="D"/><circle cx="305.805" cy="798.944" r=".5" class="B"/><circle cx="523.361" cy="400.034" r=".5" class="B"/><circle cx="882.469" cy="632.517" r=".5" class="D"/><circle cx="183.061" cy="36.104" r=".5" class="C"/><circle cx="784.437" cy="330.554" r=".5" class="B"/><circle cx="278.716" cy="81.86" r=".5" class="D"/><circle cx="1118.45" cy="399.481" r=".5"/><circle cx="1387.5" cy="341.294" r=".5" class="D"/><circle cx="1345.7" cy="514.571" r=".5"/><circle cx="109.673" cy="115.099" r=".5" class="C"/><circle cx="237.156" cy="480.92" r=".5" class="C"/><circle cx="742.795" cy="476.531" r=".5" class="B"/><circle cx="223.42" cy="27.294" r=".5" class="D"/><circle cx="59.44" cy="312.286" r=".5" class="E"/><circle cx="1200.95" cy="124.234" r=".5" class="E"/><circle cx="1042.61" cy="477.808" r=".5" class="D"/><circle cx="170.199" cy="613.861" r=".5" class="D"/><circle cx="1241.9" cy="610.354" r=".5" class="B"/><circle cx="435.389" cy="711.807" r=".5"/><circle cx="770.613" cy="196.077" r=".5" class="E"/><circle cx="743.587" cy="231.786" r=".5" class="B"/><circle cx="1101.18" cy="745.258" r=".5"/><circle cx="334.264" cy="512.317" r=".5"/><circle cx="761.562" cy="353.291" r=".5" class="B"/><circle cx="1358.57" cy="160.41" r=".5" class="E"/><circle cx="800.775" cy="172.437" r=".5" class="C"/><circle cx="921.495" cy="453.604" r=".5" class="D"/><circle cx="952.035" cy="246.027" r=".5" class="E"/><circle cx="190.39" cy="533.119" r=".5" class="B"/><circle cx="257.609" cy="610.719" r=".5" class="E"/><circle cx="600.368" cy="159.077" r=".5" class="B"/><circle cx="987.253" cy="505.109" r=".5"/><circle cx="659.932" cy="792.089" r=".5" class="C"/><circle cx="526.229" cy="547.632" r=".5" class="B"/><circle cx="23.952" cy="184.708" r=".5" class="D"/><circle cx="673.521" cy="796.316" r=".5" class="B"/><circle cx="573.193" cy="504.663" r=".5" class="D"/><circle cx="464.928" cy="453.764" r=".5"/><circle cx="1038.68" cy="361.871" r=".5" class="D"/><circle cx="273.032" cy="640.958" r=".5" class="D"/><circle cx="985.831" cy="12.32" r=".5" class="E"/><circle cx="431.29" cy="630.109" r=".5" class="C"/><circle cx="1001.99" cy="224.021" r=".5" class="B"/><circle cx="64.99" cy="437.911" r=".5" class="B"/><circle cx="1003.95" cy="45.756" r=".5" class="E"/><circle cx="1221.4" cy="460.52" r=".5" class="E"/><circle cx="1320.65" cy="243.898" r=".5" class="D"/><circle cx="1249.87" cy="643.155" r=".5"/><circle cx="103.097" cy="777.971" r=".5" class="D"/><circle cx="127.825" cy="659.037" r=".5" class="D"/><circle cx="525.277" cy="383.92" r=".5" class="D"/><circle cx="981.979" cy="237.134" r=".5" class="C"/><circle cx="59.882" cy="108.313" r=".5" class="E"/><circle cx="186.727" cy="775.641" r=".5" class="C"/><circle cx="977.573" cy="392.946" r=".5" class="B"/><circle cx="629.617" cy="592.126" r=".5" class="D"/><circle cx="548.661" cy="792.201" r=".5" class="B"/><circle cx="350.414" cy="188.177" r=".5" class="D"/><circle cx="696.392" cy="529.391" r=".5" class="C"/><circle cx="686.42" cy="719.561" r=".5" class="E"/><circle cx="161.956" cy="670.155" r=".5" class="B"/><circle cx="1108.43" cy="752.31" r=".5" class="B"/><circle cx="800.328" cy="464.217" r=".5" class="B"/><circle cx="1165.64" cy="476.672" r=".5" class="B"/><circle cx="1149.43" cy="674.451" r=".5" class="D"/><circle cx="255.981" cy="607.103" r=".5" class="C"/><circle cx="601.396" cy="510.104" r=".5" class="C"/><circle cx="6.557" cy="353.936" r=".5" class="E"/><circle cx="574.153" cy="360.099" r=".5" class="D"/><circle cx="335.604" cy="36.107" r=".5" class="C"/><circle cx="293.833" cy="257.583" r=".5" class="B"/><circle cx="148.737" cy="362.354" r=".5" class="B"/><circle cx="451.245" cy="458.919" r=".5" class="C"/><circle cx="1057.55" cy="751.433" r=".5" class="C"/><circle cx="457.847" cy="103.988" r=".5" class="C"/><circle cx="540.545" cy="375.224" r=".5" class="E"/><circle cx="1233.24" cy="230.2" r=".5" class="C"/><circle cx="988.997" cy="111.382" r=".5" class="E"/><circle cx="1085.96" cy="384.043" r=".5" class="D"/><circle cx="734" cy="520.954" r=".5" class="C"/><circle cx="624.229" cy="244.539" r=".5" class="C"/><circle cx="230.557" cy="708.861" r=".5" class="E"/><circle cx="713.428" cy="431.489" r=".5" class="E"/><circle cx="730.724" cy="111.898" r=".5" class="C"/><circle cx="1214.85" cy="257.964" r=".5" class="C"/><circle cx="569.874" cy="457.36" r=".5"/><circle cx="927.212" cy="138.078" r=".5" class="C"/><circle cx="913.574" cy="430.93" r=".5" class="B"/><circle cx="915.718" cy="579.085" r=".5" class="D"/><circle cx="361.374" cy="72.447" r=".5" class="C"/><circle cx="709.228" cy="322.368" r=".5" class="C"/><circle cx="1014.01" cy="441.969" r=".5" class="D"/><circle cx="1002.28" cy="90.072" r=".5" class="B"/><circle cx="782.344" cy="514.442" r=".5" class="E"/><circle cx="852.556" cy="119.652" r=".5" class="B"/><circle cx="53.291" cy="301.278" r=".5" class="C"/><circle cx="476.845" cy="190.549" r=".5" class="D"/><circle cx="1144.71" cy="96.305" r=".5" class="B"/><circle cx="535.613" cy="403.465" r=".5" class="D"/><circle cx="77.99" cy="516.793" r=".5" class="B"/><circle cx="884.314" cy="583.566" r=".5" class="B"/><circle cx="1033.83" cy="10.752" r=".5"/><circle cx="850.115" cy="357.235" r=".5" class="C"/><circle cx="513.42" cy="184.157" r=".5" class="D"/><circle cx="1201.53" cy="585.463" r=".5" class="D"/><circle cx="717.35" cy="435.854" r=".5" class="B"/><circle cx="273.611" cy="361.385" r=".5" class="E"/><circle cx="527.159" cy="255.029" r=".5" class="B"/><circle cx="166.478" cy="84.811" r=".5" class="C"/><circle cx="1319.56" cy="474.229" r=".5" class="C"/><circle cx="1241.36" cy="701.649" r=".5" class="B"/><circle cx="281.091" cy="443.239" r=".5" class="B"/><circle cx="858.252" cy="740.581" r=".5" class="E"/><circle cx="1191.4" cy="511.588" r=".5" class="D"/><circle cx="272.71" cy="484.967" r=".5" class="D"/><circle cx="1102.19" cy="523.931" r=".5" class="B"/><circle cx="377.407" cy="528.923" r=".5" class="E"/><circle cx="45.611" cy="143.127" r=".5" class="C"/><circle cx="370.422" cy="153.341" r=".5"/><circle cx="751.432" cy="300.384" r=".5" class="E"/><circle cx="477.312" cy="243.688" r=".5" class="B"/><use xlink:href="#Q" class="B"/><path d="M434.367 368.954l.424 1.076 1.076.424-1.076.424-.424 1.076-.424-1.076-1.076-.424 1.076-.424.424-1.076z" class="E"/><path d="M30.072 163.149l.424 1.076 1.076.424-1.076.424-.424 1.076-.424-1.076-1.076-.424 1.076-.424.424-1.076z" class="D"/><path d="M324.739 436.438l.425 1.075 1.075.425-1.075.424-.425 1.076-.424-1.076-1.076-.424 1.076-.425.424-1.075z" class="B"/><path d="M368.333 323.747l.424 1.076 1.076.424-1.076.425-.424 1.075-.424-1.075-1.076-.425 1.076-.424.424-1.076zM987.144 95.39l.424 1.076 1.076.424-1.076.424-.424 1.076-.425-1.076-1.075-.424 1.075-.424.425-1.076z" class="E"/><path d="M1233.19 731.111l.42 1.075 1.08.425-1.08.424-.42 1.076-.43-1.076-1.07-.424 1.07-.425.43-1.075z" class="C"/><path d="M824.787 131.828l.424 1.075 1.076.425-1.076.424-.424 1.076-.424-1.076-1.076-.424 1.076-.425.424-1.075z" class="D"/><path d="M1260.54 56.106l.43 1.076 1.07.424-1.07.424-.43 1.076-.42-1.076-1.08-.424 1.08-.424.42-1.076z" class="B"/><path d="M661.514 240.193l.424 1.075 1.076.425-1.076.424-.424 1.076-.425-1.076-1.075-.424 1.075-.425.425-1.075zm676.736 492.978l.42 1.076 1.08.424-1.08.424-.42 1.076-.43-1.076-1.07-.424 1.07-.424.43-1.076z" class="D"/><path d="M388.248 227.198l.424 1.075 1.076.425-1.076.424-.424 1.076-.424-1.076-1.076-.424 1.076-.425.424-1.075z" class="B"/><path d="M843.945 751.249l.425 1.075 1.075.425-1.075.424-.425 1.076-.424-1.076-1.076-.424 1.076-.425.424-1.075z" class="E"/><path d="M193.484 406.419l.425 1.076 1.075.424-1.075.425-.425 1.075-.424-1.075-1.076-.425 1.076-.424.424-1.076zM1298.71 247.153l.43 1.076 1.07.424-1.07.425-.43 1.075-.42-1.075-1.08-.425 1.08-.424.42-1.076z" class="B"/><path d="M907.09 408.053l.424 1.076 1.076.424-1.076.425-.424 1.075-.424-1.075-1.076-.425 1.076-.424.424-1.076z" class="D"/><path d="M907.84 73.56l.424 1.076 1.076.424-1.076.424-.424 1.076-.424-1.076-1.076-.424 1.076-.424.424-1.076zM236.071 363.427l.425 1.076 1.075.424-1.075.424-.425 1.076-.424-1.076-1.076-.424 1.076-.424.424-1.076z" class="C"/><path d="M1351.85 201.536l.43 1.076 1.07.424-1.07.424-.43 1.076-.42-1.076-1.08-.424 1.08-.424.42-1.076z" class="B"/><path d="M386.789 448.357l.424 1.076 1.076.424-1.076.424-.424 1.076-.424-1.076-1.076-.424 1.076-.424.424-1.076z" class="E"/><path d="M1344.66 590.806l.43 1.075 1.07.425-1.07.424-.43 1.076-.42-1.076-1.08-.424 1.08-.425.42-1.075z" class="D"/><path d="M1325.01 450.099l.43 1.075 1.07.425-1.07.424-.43 1.076-.42-1.076-1.08-.424 1.08-.425.42-1.075z" class="C"/><path d="M1083.1 748.93l.42 1.076 1.08.424-1.08.424-.42 1.076-.43-1.076-1.07-.424 1.07-.424.43-1.076z" class="B"/><circle cx="624.508" cy="474.537" r="1.5" class="D"/><circle cx="887.345" cy="309.575" r="1.5" class="E"/><circle cx="792.133" cy="489.807" r="1.5" class="E"/><circle cx="1193.91" cy="783.878" r="1.5" class="B"/><circle cx="1166.82" cy="566.592" r="1.5" class="E"/><circle cx="29.888" cy="13.718" r="1.5" class="B"/><circle cx="224.616" cy="95.637" r="1.5" class="B"/><circle cx="767.402" cy="779.951" r="1.5" class="B"/><circle cx="619.845" cy="596.184" r="1.5" class="C"/><circle cx="943.748" cy="684.348" r="1.5" class="C"/><circle cx="943.775" cy="288.973" r="1.5" class="E"/><circle cx="1130.14" cy="212.535" r="1.5" class="E"/><circle cx="577.748" cy="72.221" r="1.5" class="C"/><circle cx="603.14" cy="750.635" r="1.5" class="B"/><circle cx="419.779" cy="674.413" r="1.5" class="E"/><circle cx="891.83" cy="175.662" r="1.5" class="B"/><use xlink:href="#R" class="B"/><path d="M862.958 604.442l.866 1.5h-1.732l.866-1.5z"/><path d="M1010.44 26.236l.86 1.5h-1.73l.87-1.5z" class="C"/><path d="M1188.55 16.581l.87 1.5h-1.73l.86-1.5zM302.255 44.067l.866 1.5h-1.732l.866-1.5z" class="B"/><path d="M760.65 55.281l.866 1.5h-1.732l.866-1.5z" class="D"/><path d="M1203.82 88.485l.87 1.5h-1.73l.86-1.5z" class="B"/><path d="M526.059 75.133l.866 1.5h-1.732l.866-1.5z" class="E"/><path d="M471.249 565.793l.866 1.5h-1.732l.866-1.5z" class="B"/><path d="M107.898 728.254l.866 1.5h-1.732l.866-1.5zm166.164-343.645l.867 1.5h-1.733l.866-1.5z" class="E"/><path d="M663.05 234.653l.866 1.5h-1.732l.866-1.5z" class="B"/><path d="M1107.8 535.511l.86 1.5h-1.73l.87-1.5z"/><path d="M983.038 452.809l.866 1.5h-1.732l.866-1.5z" class="C"/><path d="M467.197 11.125l.866 1.5h-1.732l.866-1.5z" class="B"/><path d="M755.636 12.199l.866 1.5h-1.732l.866-1.5z" class="E"/><path d="M766.848 768.155l.866 1.5h-1.732l.866-1.5z" class="C"/><path d="M1216.08 101.678l.87 1.5h-1.74l.87-1.5zM327.656 313.493l.866 1.5h-1.732l.866-1.5zm378.502 352.466l.866 1.5h-1.732l.866-1.5z" class="D"/><path d="M1000.35 360.774l.87 1.5h-1.732l.862-1.5z" class="E"/><path d="M348.399 170.627l.866 1.5h-1.732l.866-1.5z" class="D"/><path d="M669.919 675.48l.866 1.5h-1.732l.866-1.5z" class="E"/><path d="M237.493 519.687l.866 1.5h-1.732l.866-1.5z" class="D"/><path d="M760.762 516.289l.866 1.5h-1.732l.866-1.5z"/><path d="M602.87 144.718l.866 1.5h-1.732l.866-1.5z" class="B"/><path d="M411.064 632.419l.866 1.5h-1.732l.866-1.5z" class="D"/><path d="M359.511 706.042l.866 1.5h-1.732l.866-1.5z" class="E"/><path d="M300.902 517.007l.866 1.5h-1.732l.866-1.5z" class="B"/><path d="M224.362 144.402l.866 1.5h-1.732l.866-1.5z" class="D"/><path d="M749.987 753.83l.866 1.5h-1.732l.866-1.5z" class="C"/></g><g filter="url(#E)"><ellipse cx="668.458" cy="195.5" rx="2.5" ry="16.458" transform="rotate(90 668.458 195.5)" fill="#fff"/></g></g><defs><filter id="A" x="221.959" y="-1028" width="1112.29" height="1785.99" filterUnits="userSpaceOnUse" class="G"><feFlood class="H"/><feBlend in="SourceGraphic"/><feGaussianBlur stdDeviation="48"/></filter><filter id="B" x="418.249" y="-896" width="1042" height="1664.24" filterUnits="userSpaceOnUse" class="G"><feFlood class="H"/><feBlend in="SourceGraphic"/><feGaussianBlur stdDeviation="48"/></filter><filter id="C" x="254.296" y="-1007" width="1169.95" height="1885.86" filterUnits="userSpaceOnUse" class="G"><feFlood class="H"/><feBlend in="SourceGraphic"/><feGaussianBlur stdDeviation="48"/></filter><filter id="D" x="303.249" y="-864" width="1042" height="1664.24" filterUnits="userSpaceOnUse" class="G"><feFlood class="H"/><feBlend in="SourceGraphic"/><feGaussianBlur stdDeviation="48"/></filter><filter id="E" x="611.999" y="153" width="112.917" height="85" filterUnits="userSpaceOnUse" class="G"><feFlood class="H"/><feBlend in="SourceGraphic"/><feGaussianBlur stdDeviation="20"/></filter><linearGradient id="F" x1="1238.25" y1="-932" x2="317.959" y2="661.989" xlink:href="#S"><stop stop-color="#fff"/><stop offset="1" stop-color="#fff" stop-opacity=".54"/></linearGradient><linearGradient id="G" x1="888" y1="24" x2="666" y2="451.5" xlink:href="#S"><stop stop-color="#fff"/><stop offset="1" stop-color="#fff" stop-opacity="0"/></linearGradient><linearGradient id="H" x1="780.367" y1="37.072" x2="528.335" y2="530.468" xlink:href="#S"><stop stop-color="#fff"/><stop offset="1" stop-color="#fff" stop-opacity="0"/></linearGradient><linearGradient id="I" x1="773" y1="56" x2="551" y2="483.5" xlink:href="#S"><stop stop-color="#fff"/><stop offset="1" stop-color="#fff" stop-opacity="0"/></linearGradient><linearGradient id="J" x1="191.188" y1="178.176" x2="191.188" y2="282.307" xlink:href="#S"><stop stop-color="#fff" stop-opacity="0"/><stop offset="1" stop-color="#fff"/></linearGradient><linearGradient id="K" x1="402.5" y1="485.408" x2="402.5" y2="582.683" xlink:href="#S"><stop stop-color="#fff" stop-opacity="0"/><stop offset="1" stop-color="#fff"/></linearGradient><linearGradient id="L" x1="1145.19" y1="479.63" x2="1145.19" y2="583.761" xlink:href="#S"><stop stop-color="#fff" stop-opacity="0"/><stop offset="1" stop-color="#fff"/></linearGradient><linearGradient id="M" x1="403.188" y1="73.196" x2="403.188" y2="177.328" xlink:href="#S"><stop stop-color="#fff" stop-opacity="0"/><stop offset="1" stop-color="#fff"/></linearGradient><radialGradient id="N" cx="0" cy="0" r="1" gradientTransform="translate(720.167 311.362) rotate(90) scale(575.326 899.522)" xlink:href="#S"><stop stop-color="#fff"/><stop offset="1" stop-color="#fff" stop-opacity="0"/></radialGradient><linearGradient id="O" x1="932.188" y1="72.233" x2="932.188" y2="176.365" xlink:href="#S"><stop stop-color="#fff" stop-opacity="0"/><stop offset="1" stop-color="#fff"/></linearGradient><clipPath id="P"><path fill="#fff" d="M0 0h1440v800H0z"/></clipPath><path id="Q" d="M57.275 73.785l.424 1.076 1.076.424-1.076.424-.424 1.076-.424-1.076-1.076-.424 1.076-.424.424-1.076z"/><path id="R" d="M73.705 708.107l.866 1.5h-1.732l.866-1.5z"/><linearGradient id="S" gradientUnits="userSpaceOnUse"/></defs></svg>