<svg xmlns="http://www.w3.org/2000/svg" viewBox="0 0 1024 1024" xmlns:v="https://vecta.io/nano"><linearGradient id="A" gradientUnits="userSpaceOnUse" x1="285.2" y1="314.573" x2="521.9" y2="314.573"><stop offset="0" stop-color="#fb7519"/><stop offset=".999" stop-color="#ffb21e"/></linearGradient><path d="M521.9 272.6c-78.6 1-158.9-2.8-236.7 1.7h0l10 5.3 145.6 77.5m-62.1-36.2s-.1 0 0 0c-.1 0 0 0 0 0zm-.2.1h0 0c0 .1 0 0 0 0z" fill="url(#A)"/><linearGradient id="B" gradientUnits="userSpaceOnUse" x1="440.8" y1="521.102" x2="743.8" y2="521.102"><stop offset="0" stop-color="#ff701c"/><stop offset=".008" stop-color="#ff721c"/><stop offset=".109" stop-color="#ff891f"/><stop offset=".224" stop-color="#ff9a21"/><stop offset=".365" stop-color="#ffa723"/><stop offset=".554" stop-color="#ffae24"/><stop offset="1" stop-color="#ffb024"/></linearGradient><path d="M741.5 742.5L499 296.1 440.8 357l286.6 381.5c4.2 5.5 6.8 7.7 16.4 7.6l-2.3-3.6z" fill="url(#B)"/><path d="M172.3 734.9c.3-.1.3-.3 0-.4v-.1c0-.1 0-.1.1-.2.5-.4.9-1 1.3-1.6.2-.3.4-.5.7-.6.6-.3 1.2-.5 1.7-.7s.9-.5 1.3-.9a49.17 49.17 0 0 0 8-9.7c.5-.8 1.3-1.6 2.4-2.4.2-.2.4-.4.4-.7.2-1.2.9-1.8 2.2-1.8.3 0 .4-.1.5-.4s.3-.4.6-.4c.4 0 .5.2.4.5-.1.2 0 .3.1.5.2.3.4.3.6 0 .1-.2.3-.2.4-.1.2.2.5.2.7 0 .5-.3.8-.6.9-1.1.1-.4.4-.4.7-.2l5.7 3.8c1.1.7 1.5 1.3 2.3 2.3.3.4.7.7 1.1.9.9.4 1.6 1 2.1 1.7.2.3.6.5 1 .5 1-.1 1.9.3 2.5 1.1.2.3.5.4.8.4s.6.1.9.3c1.6 1 3.1 1 4.8 0 .2-.1.2-.2.2-.4v-.3c.1-.2.2-.3.3-.3 1.8-.4 3.6-.6 5.2-.4.4 0 .7-.1 1-.4l1-1c.1-.1.1-.1.2-.1s3.9-1.8 4.9-2.2c1.6-.7 3.1-1.5 4.6-2.4l14.7-8.6c5.1-2.9 9.9-5.8 14.6-8.7l39.3-23.9L339 655l31.7-19.6" fill="#9924fa"/><linearGradient id="C" gradientUnits="userSpaceOnUse" x1="499" y1="509.45" x2="862.005" y2="509.45"><stop offset="0" stop-color="#fd5921"/><stop offset="1" stop-color="#bb0794"/></linearGradient><path d="M499 296.2l180.6 332c0 .1.1.1 0 .2l64.1 117.8 115.5-.1c5.3 0 1.7-6.4.4-8.3L629.2 412.5l-94.5-132.2c-3.3-4.6-7.6-7.1-12.8-7.6L499 296.2zM615.5 419s-.1-.1 0 0c-.1-.1 0 0 0 0zm-.4-.2h0s-.1 0 0 0c-.1 0-.1 0 0 0zm-.2 0c-.1 0-.1 0-.2.1.1-.1.1-.1.2-.1zm-4.1 14.5h0 0zm-.1-.1h0c-.1 0-.1 0 0 0-.1 0-.1 0 0 0zm-.4 3.1l-.1.1c.1 0 .1-.1.1-.1zm-.1.3v.1-.1zm.3.6c-.1 0-.1 0 0 0l-.1-.1c0 0 0 .1.1.1zm-.2-.2v-.1.1zm0 58.1h0 0 0zm-4.2-10.8h0c0 .1 0 .1 0 0h0zm9.1-65.5h0 0zm.4.3s0 .1 0 0c0 .1 0 0 0 0zM720 637.7h0 0zm-.3 0h0 0c0 .1 0 .1 0 0zm-27-34h0c0 .1 0 .1 0 0 0 .1 0 0 0 0zm-.1.1c0 .1-.1.1 0 0-.1.1 0 .1 0 0zm51.8 95.5h0 0 0zm1.7-118.9h0 0 0z" fill="url(#C)"/><linearGradient id="D" gradientUnits="userSpaceOnUse" x1="188.3" y1="689.715" x2="662.221" y2="689.715"><stop offset=".14" stop-color="#9122fd"/><stop offset=".474" stop-color="#d914eb"/><stop offset=".498" stop-color="#de13ea"/><stop offset=".999" stop-color="#fb087a"/></linearGradient><path d="M188.3 744.6l211.5.2 258.7.1c5.7-.4 3.9-7.4.9-10.1l-69.4-91c-3-4.3-6.1-9.6-12-9.3l-205.3.2m166.8 108.7h0v.2-.2zm.1-.1c0-.1 0-.1 0 0 0-.1 0-.1 0 0zM421 709.6c.1 0 .1.1 0 0 0 .1 0 0 0 0 0 .1 0 0 0 0z" fill="url(#D)"/><linearGradient id="E" gradientUnits="userSpaceOnUse" x1="432.764" y1="456.127" x2="220.301" y2="743.453"><stop offset="0" stop-color="#0fd7ff"/><stop offset=".457" stop-color="#3c8ffe"/><stop offset="1" stop-color="#7534fd"/></linearGradient><path d="M472.2 496.4c2.5-3.4 4.7-5.9 2-9.4l-63.7-82.5c-3.7-4.5-8.7-4.2-12.8 1.4l-50 71.5-.1-.1-35.9 51.5v.2L166.3 738.7c-2.8 3.9.2 5.9 1.4 5.9l9.9.1 10.7.1c61.6-34.7 123.8-73.5 184.4-109.8" fill="url(#E)"/></svg>