<?xml version="1.0" encoding="UTF-8"?><svg id="Layer_1" xmlns="http://www.w3.org/2000/svg" xmlns:xlink="http://www.w3.org/1999/xlink" viewBox="0 0 120 80"><defs><style>.cls-1{fill:#0690ff;}.cls-1,.cls-2,.cls-3{stroke-width:0px;}.cls-4{clip-path:url(#clippath);}.cls-2{fill:none;}.cls-3{fill:#fff;}</style><clipPath id="clippath"><rect class="cls-2" x="40" width="80" height="80" rx="4" ry="4"/></clipPath></defs><rect class="cls-1" width="120" height="80" rx="4" ry="4"/><g class="cls-4"><rect class="cls-3" x="40" width="80" height="80" rx="4" ry="4"/><path class="cls-1" d="M120,80v-12.68h-9.65l-4.97-5.49-4.99,5.49h-31.82v-25.61h-10.27l12.74-28.83h12.29l4.39,9.88v-9.88h15.21l2.64,7.44,2.66-7.44h11.79V0H40v80h80ZM111.97,64.12h8.03l-10.62-11.26,10.62-11.13h-7.9l-6.56,7.16-6.49-7.16h-8.03l10.55,11.19-10.55,11.19h7.8l6.59-7.23,6.56,7.23h0ZM113.85,52.87l6.15,6.54v-13.03s-6.15,6.49-6.15,6.49ZM78.07,58.94v-3.49h12.63v-5.05h-12.63v-3.49h12.95v-5.18h-19.06v22.39h19.06v-5.18h-12.95ZM113.96,38.48h6.04v-22.39h-9.4l-5.02,13.94-4.99-13.94h-9.56v22.39h6.04v-15.67l5.76,15.67h5.37l5.76-15.7v15.7h0ZM84.15,38.48h6.88l-9.88-22.39h-7.87l-9.88,22.39h6.72l1.86-4.48h10.3l1.89,4.48h0ZM80.15,28.98h-6.08l3.04-7.32,3.04,7.32h0Z"/></g></svg>