<?xml version="1.0" encoding="UTF-8"?><svg id="Layer_1" xmlns="http://www.w3.org/2000/svg" xmlns:xlink="http://www.w3.org/1999/xlink" viewBox="0 0 120 80"><defs><style>.cls-1{clip-path:url(#clippath);}.cls-2,.cls-3,.cls-4{stroke-width:0px;}.cls-2,.cls-5{fill:none;}.cls-3{fill:#000;}.cls-4{fill:#fff;}.cls-5{stroke:#000;stroke-width:2.75px;}</style><clipPath id="clippath"><rect class="cls-2" width="120" height="80" rx="4" ry="4"/></clipPath></defs><g class="cls-1"><rect class="cls-4" x="1.38" y="1.38" width="117.25" height="77.25" rx="6.62" ry="6.62"/><path class="cls-3" d="M55.55,22.91c5.55,0,9.41,3.83,9.41,9.4s-3.94,9.44-9.55,9.44h-6.14v9.77h-4.44v-28.6h10.72ZM49.27,38.01h5.09c3.87,0,6.06-2.08,6.06-5.69s-2.2-5.67-6.05-5.67h-5.11v11.36ZM66.13,45.58c0-3.65,2.79-5.89,7.75-6.17l5.71-.34v-1.6c0-2.32-1.57-3.71-4.18-3.71-2.48,0-4.02,1.19-4.4,3.05h-4.04c.24-3.77,3.45-6.54,8.6-6.54s8.29,2.68,8.29,6.86v14.37h-4.1v-3.43h-.1c-1.21,2.32-3.85,3.79-6.58,3.79-4.08,0-6.94-2.54-6.94-6.28ZM79.58,43.7v-1.65l-5.13.32c-2.56.18-4,1.31-4,3.09s1.51,3.01,3.81,3.01c2.99,0,5.33-2.06,5.33-4.78ZM87.72,59.18v-3.47c.32.08,1.03.08,1.39.08,1.98,0,3.05-.83,3.71-2.97,0-.04.38-1.27.38-1.29l-7.53-20.87h4.64l5.27,16.97h.08l5.27-16.97h4.52l-7.81,21.94c-1.78,5.06-3.85,6.68-8.17,6.68-.36,0-1.43-.04-1.74-.1h0ZM31.74,25.7c1.07-1.34,1.8-3.14,1.6-4.97-1.57.08-3.48,1.03-4.58,2.37-.99,1.15-1.87,3.02-1.64,4.78,1.76.15,3.51-.88,4.62-2.18ZM33.32,28.22c-2.55-.15-4.72,1.45-5.94,1.45s-3.09-1.37-5.11-1.34c-2.63.04-5.07,1.52-6.4,3.89-2.74,4.73-.72,11.74,1.94,15.6,1.3,1.9,2.86,4,4.91,3.93,1.94-.08,2.71-1.26,5.07-1.26s3.05,1.26,5.1,1.22c2.13-.04,3.47-1.91,4.76-3.81,1.49-2.17,2.1-4.27,2.13-4.39-.04-.04-4.11-1.6-4.15-6.29-.04-3.93,3.2-5.79,3.35-5.91-1.83-2.7-4.69-3.01-5.68-3.09h0Z"/><rect class="cls-5" x="1.38" y="1.38" width="117.25" height="77.25" rx="6.62" ry="6.62"/></g></svg>