<?xml version="1.0" encoding="UTF-8"?><svg id="Layer_1" xmlns="http://www.w3.org/2000/svg" xmlns:xlink="http://www.w3.org/1999/xlink" viewBox="0 0 120 80"><defs><style>.cls-1{stroke:#000;stroke-width:1.33px;}.cls-1,.cls-2,.cls-3{fill:none;}.cls-4{fill:url(#linear-gradient);}.cls-4,.cls-5{stroke-width:0px;}.cls-2{stroke:#fff;}.cls-2,.cls-3{stroke-linecap:round;stroke-width:4px;}.cls-5{fill:#ededed;}.cls-3{stroke:#ededed;}</style><linearGradient id="linear-gradient" x1="46.62" y1="71.78" x2="66.62" y2="27.26" gradientTransform="translate(0 82) scale(1 -1)" gradientUnits="userSpaceOnUse"><stop offset="0" stop-color="#c1c1c1"/><stop offset="1" stop-color="#9f9f9f"/></linearGradient></defs><rect class="cls-4" width="120" height="80" rx="4" ry="4"/><path class="cls-2" d="M97.03,65h-14M75.85,65h-14M54.68,65h-14M33.51,65h-14"/><path class="cls-5" d="M32.17,23.99h-13.33c-2.95,0-5.33,2.39-5.33,5.33v9.33c0,2.94,2.39,5.33,5.33,5.33h13.33c2.94,0,5.33-2.39,5.33-5.33v-9.33c0-2.94-2.39-5.33-5.33-5.33Z"/><path class="cls-1" d="M22.52,25v18M22.52,37h-8M36.52,37h-8M22.52,31h-8M36.49,31h-8.24v12.05M18.84,24.65h13.33c2.58,0,4.67,2.09,4.67,4.67v9.33c0,2.58-2.09,4.67-4.67,4.67h-13.33c-2.58,0-4.67-2.09-4.67-4.67v-9.33c0-2.58,2.09-4.67,4.67-4.67Z"/><path class="cls-3" d="M106.49,15h-14"/></svg>