<?xml version="1.0" encoding="UTF-8"?><svg id="Layer_1" xmlns="http://www.w3.org/2000/svg" viewBox="0 0 120 80"><defs><style>.cls-1{fill:#34a853;}.cls-1,.cls-2,.cls-3,.cls-4,.cls-5,.cls-6{stroke-width:0px;}.cls-2{fill:#4285f4;}.cls-3{fill:#e94235;}.cls-4{fill:#3c4043;}.cls-5{fill:#fff;}.cls-6{fill:#fabb05;}</style></defs><rect class="cls-5" width="120" height="80" rx="4" ry="4"/><path class="cls-4" d="M57.54,27v8.98h5.54c1.32,0,2.41-.44,3.27-1.33.89-.88,1.33-1.94,1.33-3.16s-.44-2.24-1.33-3.13c-.86-.91-1.95-1.36-3.27-1.36h-5.54s0,0,0,0ZM57.54,39.14v10.42h-3.31v-25.72h8.78c2.23,0,4.12.74,5.68,2.23,1.58,1.49,2.38,3.29,2.38,5.42s-.79,4-2.38,5.46c-1.53,1.46-3.43,2.19-5.68,2.19h-5.47s0,0,0,0ZM74.41,44.17c0,.86.36,1.58,1.1,2.16s1.59.86,2.57.86c1.39,0,2.63-.51,3.72-1.54s1.64-2.24,1.64-3.63c-1.03-.81-2.47-1.22-4.32-1.22-1.34,0-2.46.33-3.36.97s-1.35,1.44-1.35,2.41ZM78.69,31.38c2.45,0,4.38.65,5.79,1.96s2.12,3.1,2.12,5.37v10.85h-3.17v-2.44h-.14c-1.37,2.01-3.19,3.02-5.47,3.02-1.94,0-3.57-.58-4.87-1.72s-1.96-2.59-1.96-4.31c0-1.82.69-3.27,2.07-4.35s3.22-1.62,5.52-1.62c1.96,0,3.58.36,4.85,1.08v-.76c0-1.15-.46-2.12-1.37-2.93-.88-.79-2.02-1.22-3.2-1.2-1.85,0-3.31.78-4.39,2.34l-2.91-1.83c1.61-2.3,3.98-3.45,7.12-3.45h0ZM104.77,31.95l-11.04,25.37h-3.42l4.1-8.88-7.26-16.49h3.6l5.25,12.65h.07l5.11-12.65h3.6s0,0,0,0Z"/><path class="cls-2" d="M44.17,36.9c0-1.04-.09-2.05-.26-3.01h-13.96v5.69h7.99c-.33,1.84-1.4,3.46-2.96,4.49v3.7h4.77c2.79-2.57,4.4-6.38,4.4-10.88Z"/><path class="cls-1" d="M29.96,51.34c3.99,0,7.36-1.31,9.81-3.57l-4.77-3.7c-1.33.89-3.04,1.42-5.04,1.42-3.86,0-7.14-2.6-8.31-6.1h-4.92v3.81c2.51,5,7.63,8.15,13.22,8.15"/><path class="cls-6" d="M21.65,39.39c-.62-1.84-.62-3.82,0-5.66v-3.81h-4.92c-1.04,2.06-1.58,4.33-1.58,6.64,0,2.39.57,4.64,1.58,6.64l4.92-3.81h0Z"/><path class="cls-3" d="M29.96,27.63c2.18,0,4.14.75,5.68,2.22h0s4.22-4.22,4.22-4.22c-2.56-2.39-5.9-3.85-9.9-3.85-5.59,0-10.71,3.15-13.22,8.14l4.92,3.81c1.17-3.5,4.45-6.1,8.31-6.1"/></svg>