<?xml version="1.0" encoding="UTF-8"?><svg id="Layer_1" xmlns="http://www.w3.org/2000/svg" viewBox="0 0 120 80"><defs><style>.cls-1{fill:#feb3c7;}.cls-1,.cls-2{stroke-width:0px;}.cls-2{fill:#000;fill-rule:evenodd;}</style></defs><rect class="cls-1" width="120" height="80" rx="4" ry="4"/><path class="cls-2" d="M34.82,49.53h4.24v-19.42h-4.24v19.42ZM61.67,38.3v-1.74h-3.75s-.21,0-.21,0v12.97h4.01v-6.79c0-1.97,2.28-2.84,3.84-2.4.02,0,.03,0,.05,0v-3.77c-1.64,0-3.15.7-3.94,1.74h0ZM48.03,46.53c-2.08,0-3.76-1.56-3.76-3.48s1.68-3.48,3.76-3.48,3.76,1.56,3.76,3.48-1.68,3.48-3.76,3.48ZM51.75,37.46c-1.19-.82-2.6-1.26-4.05-1.26-3.87,0-7.01,3.06-7.01,6.84s3.14,6.84,7.01,6.84c1.45,0,2.86-.44,4.05-1.26v.9h3.46v-12.97h-3.46v.9h0ZM75.52,36.22c-1.59,0-3.09.48-4.1,1.81v-1.46h-3.75s-.21,0-.21,0v12.96h4.01v-7.09c0-1.97,1.36-2.94,2.99-2.94,1.75,0,2.75,1.02,2.75,2.91v7.12h3.97v-8.24c0-3.02-2.46-5.07-5.66-5.07ZM101.34,44.93c-1.38,0-2.5,1.09-2.5,2.44s1.12,2.44,2.5,2.44,2.5-1.09,2.5-2.44-1.12-2.44-2.5-2.44ZM89.93,46.53c-2.08,0-3.76-1.56-3.76-3.48s1.68-3.48,3.76-3.48,3.76,1.56,3.76,3.48-1.68,3.48-3.76,3.48ZM93.65,37.46c-1.19-.82-2.6-1.26-4.05-1.26-3.87,0-7.01,3.06-7.01,6.84s3.14,6.84,7.01,6.84c1.45,0,2.86-.44,4.05-1.26v.9h3.46v-12.97h-3.46v.9h0ZM99.63,36.8h.19c.12,0,.17.06.17.15s-.03.15-.17.15h-.19v-.3h0ZM99.64,37.26h.19l.16.36h.19l-.18-.39c.12-.05.18-.15.18-.28,0-.18-.14-.31-.35-.31h-.37v.98h.18s0-.36,0-.36ZM16.16,49.53h4.42v-19.42h-4.42v19.42ZM31.93,30.11h-4.29c-.09,4.38-2.68,8.17-6.45,10.04l6.59,9.38h5.38l-5.99-8.53c2.99-2.84,4.7-6.77,4.75-10.89h0ZM99.78,36.39c.42,0,.76.34.76.75s-.34.75-.76.75-.76-.34-.76-.75.34-.75.76-.75ZM99.78,38.07c.52,0,.94-.42.94-.93s-.42-.93-.94-.93-.94.42-.94.93.42.93.94.93Z"/></svg>