<?xml version="1.0" encoding="UTF-8"?><svg id="Layer_1" xmlns="http://www.w3.org/2000/svg" viewBox="0 0 120 80"><defs><style>.cls-1{fill:#eb001b;}.cls-1,.cls-2,.cls-3,.cls-4,.cls-5{stroke-width:0px;}.cls-1,.cls-2,.cls-3,.cls-5{fill-rule:evenodd;}.cls-2{fill:#f79e1b;}.cls-3{fill:#ff5f00;}.cls-4{fill:#fff;}.cls-5{fill:#000;}</style></defs><rect class="cls-4" width="120" height="80" rx="4" ry="4"/><path class="cls-2" d="M97.53,48.16v-.92h-.24l-.28.63-.28-.63h-.24v.92h.17v-.69l.26.6h.18l.26-.6v.69h.17ZM96.01,48.16v-.76h.31v-.15h-.78v.15h.31v.76h.17Z"/><path class="cls-3" d="M49.65,52.1h20.7V14.9h-20.7v37.19Z"/><path class="cls-2" d="M98.27,33.5c0,13.06-10.59,23.65-23.65,23.65-5.3,0-10.45-1.77-14.62-5.06,5.5-4.33,9.03-11.05,9.03-18.6s-3.53-14.27-9.03-18.6c4.16-3.28,9.31-5.06,14.62-5.06,13.06,0,23.65,10.59,23.65,23.65h0Z"/><path class="cls-1" d="M50.97,33.5c0-7.55,3.53-14.26,9.03-18.6-4.16-3.28-9.31-5.06-14.62-5.06-13.06,0-23.65,10.59-23.65,23.65s10.59,23.65,23.65,23.65c5.3,0,10.45-1.77,14.62-5.06-5.5-4.33-9.03-11.05-9.03-18.6h0Z"/><path class="cls-5" d="M34.92,69.79v-3.87c0-1.48-.9-2.45-2.44-2.45-.77,0-1.6.26-2.18,1.1-.45-.71-1.09-1.1-2.05-1.1-.64,0-1.28.19-1.79.9v-.77h-1.35v6.19h1.35v-3.42c0-1.1.58-1.61,1.47-1.61s1.35.58,1.35,1.61v3.42h1.35v-3.42c0-1.1.64-1.61,1.47-1.61.9,0,1.35.58,1.35,1.61v3.42h1.47,0ZM54.85,63.6h-2.18v-1.87h-1.35v1.87h-1.22v1.23h1.22v2.84c0,1.42.58,2.26,2.12,2.26.58,0,1.22-.19,1.67-.45l-.38-1.16c-.38.26-.83.32-1.15.32-.64,0-.9-.39-.9-1.03v-2.77h2.18v-1.23h0ZM66.25,63.47c-.77,0-1.28.39-1.6.9v-.77h-1.35v6.19h1.35v-3.48c0-1.03.45-1.61,1.28-1.61.26,0,.58.06.83.13l.38-1.29c-.26-.06-.64-.06-.9-.06h0ZM49.02,64.12c-.64-.45-1.54-.65-2.5-.65-1.54,0-2.56.77-2.56,2,0,1.03.77,1.61,2.11,1.81l.64.06c.71.13,1.09.32,1.09.64,0,.45-.51.77-1.41.77s-1.6-.32-2.05-.64l-.64,1.03c.71.52,1.67.77,2.63.77,1.79,0,2.82-.84,2.82-2,0-1.1-.83-1.68-2.12-1.87l-.64-.07c-.58-.06-1.03-.19-1.03-.58,0-.45.45-.71,1.15-.71.77,0,1.54.32,1.92.52l.58-1.1h0ZM84.77,63.47c-.77,0-1.28.39-1.6.9v-.77h-1.35v6.19h1.35v-3.48c0-1.03.45-1.61,1.28-1.61.26,0,.58.06.83.13l.38-1.29c-.26-.06-.64-.06-.9-.06h0ZM67.6,66.7c0,1.87,1.28,3.22,3.27,3.22.9,0,1.54-.19,2.18-.71l-.64-1.1c-.51.39-1.03.58-1.6.58-1.09,0-1.86-.77-1.86-2,0-1.16.77-1.93,1.86-2,.58,0,1.09.19,1.6.58l.64-1.1c-.64-.52-1.28-.71-2.18-.71-1.99,0-3.27,1.36-3.27,3.22h0ZM80.03,63.6h-1.35v.77c-.45-.58-1.09-.9-1.92-.9-1.73,0-3.08,1.36-3.08,3.22s1.35,3.22,3.08,3.22c.9,0,1.54-.32,1.92-.9v.77h1.35v-6.19ZM75.1,66.7c0-1.1.71-2,1.86-2,1.09,0,1.86.84,1.86,2,0,1.1-.77,2-1.86,2-1.15-.06-1.86-.9-1.86-2ZM59.01,63.47c-1.79,0-3.08,1.29-3.08,3.22s1.28,3.22,3.14,3.22c.9,0,1.79-.26,2.5-.84l-.64-.97c-.51.39-1.15.64-1.79.64-.83,0-1.67-.39-1.86-1.48h4.55v-.52c.06-2-1.09-3.29-2.82-3.29ZM59.01,64.64c.83,0,1.41.52,1.54,1.48h-3.2c.13-.84.71-1.48,1.67-1.48ZM92.4,61.15h-1.35v3.22c-.45-.58-1.09-.9-1.92-.9-1.73,0-3.08,1.36-3.08,3.22s1.35,3.22,3.08,3.22c.9,0,1.54-.32,1.92-.9v.77h1.35v-8.64ZM87.46,66.7c0-1.1.71-2,1.86-2,1.09,0,1.86.84,1.86,2,0,1.1-.77,2-1.86,2-1.15-.06-1.86-.9-1.86-2ZM42.48,63.6h-1.35v.77c-.45-.58-1.09-.9-1.92-.9-1.73,0-3.08,1.36-3.08,3.22s1.35,3.22,3.08,3.22c.9,0,1.54-.32,1.92-.9v.77h1.35v-6.19ZM37.48,66.7c0-1.1.71-2,1.86-2,1.09,0,1.86.84,1.86,2,0,1.1-.77,2-1.86,2-1.15-.06-1.86-.9-1.86-2ZM94.31,69.52v.12h.11s.04,0,.06-.01.02-.03.02-.05,0-.04-.02-.04-.04-.01-.06-.01h-.11ZM94.42,69.43c.06,0,.1.01.13.04s.05.06.05.11c0,.04-.01.07-.04.09s-.06.04-.11.04l.15.17h-.11l-.14-.17h-.04v.17h-.1v-.46h.21,0ZM94.39,70.04c.05,0,.1,0,.15-.03.04-.02.08-.05.12-.08.03-.04.06-.08.08-.12.02-.05.03-.1.03-.15,0-.05-.01-.1-.03-.15-.02-.05-.05-.09-.08-.12-.03-.03-.07-.06-.12-.08-.05-.02-.1-.03-.15-.03-.05,0-.1.01-.15.03-.09.04-.16.11-.2.2-.02.05-.03.1-.03.15,0,.05.01.1.03.15s.05.09.08.12.07.06.12.08.1.03.15.03h0ZM94.39,69.17c.07,0,.13.01.19.04s.11.06.16.11c.04.04.08.1.11.16.03.06.04.12.04.19s-.01.13-.04.19-.06.11-.11.16-.1.08-.16.11-.12.04-.19.04c-.07,0-.13-.01-.19-.04-.12-.05-.21-.14-.26-.26-.03-.06-.04-.13-.04-.19,0-.07.01-.13.04-.19.02-.06.06-.11.11-.16.04-.04.1-.08.16-.11.06-.03.13-.04.19-.04Z"/></svg>