<?xml version="1.0" encoding="UTF-8"?><svg id="Layer_1" xmlns="http://www.w3.org/2000/svg" viewBox="0 0 120 80"><defs><style>.cls-1{fill:#003087;}.cls-1,.cls-2{fill-rule:evenodd;}.cls-1,.cls-2,.cls-3{stroke-width:0px;}.cls-2{fill:#009cde;}.cls-3{fill:#fff;}</style></defs><rect class="cls-3" width="120" height="80" rx="4" ry="4"/><path class="cls-2" d="M76.23,34.67c-.38,2.46-2.26,2.46-4.08,2.46h-1.04l.73-4.6c.04-.28.28-.48.57-.48h.48c1.24,0,2.41,0,3.02.71.36.42.47,1.05.33,1.91ZM75.44,28.24h-6.87c-.47,0-.87.34-.94.81l-2.78,17.6c-.05.35.21.66.57.66h3.53c.33,0,.61-.24.66-.56l.79-4.99c.07-.46.47-.81.94-.81h2.17c4.53,0,7.14-2.19,7.82-6.53.31-1.9.01-3.39-.88-4.43-.98-1.15-2.71-1.75-5.01-1.75Z"/><path class="cls-1" d="M27.23,34.67c-.38,2.46-2.26,2.46-4.08,2.46h-1.04l.73-4.6c.04-.28.28-.48.57-.48h.48c1.24,0,2.41,0,3.02.71.36.42.47,1.05.33,1.91ZM26.44,28.24h-6.87c-.47,0-.87.34-.94.81l-2.78,17.6c-.05.35.21.66.57.66h3.28c.47,0,.87-.34.94-.8l.75-4.75c.07-.46.47-.81.94-.81h2.17c4.53,0,7.14-2.19,7.82-6.53.31-1.9.01-3.39-.88-4.43-.98-1.15-2.71-1.75-5.01-1.75Z"/><path class="cls-1" d="M42.39,40.99c-.32,1.88-1.81,3.14-3.71,3.14-.95,0-1.72-.31-2.21-.89-.49-.58-.67-1.4-.52-2.31.3-1.86,1.81-3.16,3.69-3.16.93,0,1.69.31,2.19.9.5.59.7,1.42.56,2.32ZM46.97,34.59h-3.29c-.28,0-.52.2-.57.48l-.14.92-.23-.33c-.71-1.03-2.3-1.38-3.89-1.38-3.63,0-6.74,2.75-7.34,6.61-.31,1.93.13,3.77,1.23,5.05,1,1.18,2.44,1.67,4.14,1.67,2.93,0,4.55-1.88,4.55-1.88l-.15.91c-.05.35.21.66.57.66h2.96c.47,0,.87-.34.94-.8l1.78-11.25c.05-.35-.21-.66-.57-.66Z"/><path class="cls-2" d="M91.39,40.99c-.32,1.88-1.81,3.14-3.71,3.14-.95,0-1.72-.31-2.21-.89-.49-.58-.67-1.4-.52-2.31.3-1.86,1.81-3.16,3.69-3.16.93,0,1.69.31,2.19.9.5.59.7,1.42.56,2.32ZM95.97,34.59h-3.29c-.28,0-.52.2-.57.48l-.14.92-.23-.33c-.71-1.03-2.3-1.38-3.89-1.38-3.63,0-6.74,2.75-7.34,6.61-.31,1.93.13,3.77,1.23,5.05,1,1.18,2.44,1.67,4.14,1.67,2.93,0,4.55-1.88,4.55-1.88l-.15.91c-.05.35.21.66.57.66h2.96c.47,0,.87-.34.94-.8l1.78-11.25c.06-.35-.21-.66-.57-.66Z"/><path class="cls-1" d="M64.49,34.59h-3.31c-.32,0-.61.16-.79.42l-4.56,6.71-1.93-6.45c-.12-.4-.49-.68-.92-.68h-3.25c-.39,0-.67.39-.54.76l3.64,10.68-3.42,4.83c-.27.38,0,.9.47.9h3.3c.31,0,.61-.15.78-.41l11-15.86c.26-.38,0-.9-.47-.9Z"/><path class="cls-2" d="M99.85,28.72l-2.82,17.93c-.06.35.21.66.57.66h2.84c.47,0,.87-.34.94-.81l2.78-17.6c.06-.35-.21-.66-.57-.66h-3.17c-.28,0-.52.2-.57.48Z"/></svg>