<?xml version="1.0" encoding="UTF-8"?><svg id="Layer_1" xmlns="http://www.w3.org/2000/svg" viewBox="0 0 120 80"><defs><style>.cls-1{fill:#182e66;fill-rule:evenodd;}.cls-1,.cls-2{stroke-width:0px;}.cls-2{fill:#fff;}</style></defs><rect class="cls-2" width="120" height="80" rx="4" ry="4"/><path class="cls-1" d="M86.67,44.94l3.66-9.88,2.06,9.88h-5.71ZM100.95,52.84l-5.14-25.67h-7.07c-2.39,0-2.97,1.91-2.97,1.91l-9.58,23.76h6.7l1.34-3.81h8.17l.75,3.81h7.81ZM77.19,33.57l.91-5.33s-2.81-1.08-5.73-1.08c-3.16,0-10.67,1.4-10.67,8.21,0,6.41,8.81,6.49,8.81,9.85s-7.9,2.76-10.51.64l-.95,5.57s2.84,1.4,7.19,1.4,10.91-2.28,10.91-8.49-8.89-7.05-8.89-9.85,6.21-2.44,8.93-.92h0ZM54.65,52.84h-7.03l4.4-25.67h7.03l-4.4,25.67h0ZM42.31,27.16l-6.39,17.66-.76-3.8h0s-2.26-11.54-2.26-11.54c0,0-.27-2.31-3.18-2.31h-10.56l-.12.43s3.23.67,7.01,2.94l5.82,22.31h6.98l10.66-25.67s-7.21,0-7.21,0Z"/><path class="cls-1" d="M34.29,40.99l-2.13-11.52s-.26-2.31-3.01-2.31h-9.98l-.12.43s4.8,1.05,9.4,4.97c4.4,3.75,5.83,8.42,5.83,8.42h0Z"/></svg>